<?xml version="1.0" encoding="UTF-8"?>
<!-- Created with Inkscape (http://www.inkscape.org/) -->
<svg width="200" height="200" version="1.1" viewBox="0 0 52.917 52.917" xmlns="http://www.w3.org/2000/svg" xmlns:cc="http://creativecommons.org/ns#" xmlns:dc="http://purl.org/dc/elements/1.1/" xmlns:rdf="http://www.w3.org/1999/02/22-rdf-syntax-ns#">
 <metadata>
  <rdf:RDF>
   <cc:Work rdf:about="">
    <dc:format>image/svg+xml</dc:format>
    <dc:type rdf:resource="http://purl.org/dc/dcmitype/StillImage"/>
    <dc:title/>
   </cc:Work>
  </rdf:RDF>
 </metadata>
 <g transform="translate(-37.242 -99.132)">
  <path d="m63.7 99.224a26.366 26.366 0 0 0-26.366 26.366 26.366 26.366 0 0 0 26.366 26.366 26.366 26.366 0 0 0 26.366-26.366 26.366 26.366 0 0 0-26.366-26.366zm0 6.8549a19.511 19.511 0 0 1 19.51 19.511 19.511 19.511 0 0 1-19.51 19.51 19.511 19.511 0 0 1-19.511-19.51 19.511 19.511 0 0 1 19.511-19.511z" style="fill:#ffffff;stroke-width:.18527;stroke:#ffffff"/>
  <path d="m44.533 122.11-0.08148 0.51094c-0.4229 2.6562-0.24732 5.4677 0.47278 8.1155 0.53363 0.0762 5.8937 0.91591 9.3892 4.4185 3.3185 3.3253 4.2151 8.2962 4.3605 9.2477 1.1205 0.30035 2.2686 0.50496 3.4212 0.60794 0.94246 0.0842 3.205 0.027 4.1223-0.10409 0.85841-0.12268 1.6917-0.2942 2.5021-0.51093 0.15087-0.98004 1.0542-5.9284 4.3594-9.2404 3.5191-3.5263 8.9319-4.3544 9.4022-4.4207 0.69682-2.5904 0.87148-5.3819 0.4845-8.0253l-0.08257-0.56379-19.175-0.0177zm37.948 8.6245c-0.1389 0.51635-0.29659 1.0255-0.47687 1.523-0.65307 1.8023-1.8964 4.0027-3.1457 5.5671-0.61465 0.76965-2.1469 2.3019-2.9165 2.9165-2.1675 1.7309-4.5684 2.9446-7.2225 3.6545-0.01709 0.111-0.03079 0.20737-0.03079 0.20737s5.2821-1.5699 8.8997-5.1875c3.6176-3.6176 4.9823-8.6946 4.9823-8.6946s-0.06821 0.0106-0.08965 0.0136zm-23.807 13.668c-1.119-0.29996-2.2104-0.69541-3.2514-1.1799-3.7241-1.7332-7.0113-4.8797-8.9671-8.5831-0.64917-1.2293-1.1617-2.5447-1.5312-3.9032-0.02811-4e-3 -0.10273-0.0158-0.10273-0.0158s1.3647 5.077 4.9823 8.6946c3.6176 3.6176 8.8997 5.1875 8.8997 5.1875s-0.01388-0.0965-0.0297-0.20002zm-8.9589-21.172a3.1006 3.1006 0 0 1 3.1005 3.1005 3.1006 3.1006 0 0 1-3.1005 3.1005 3.1006 3.1006 0 0 1-3.1005-3.1005 3.1006 3.1006 0 0 1 3.1005-3.1005zm27.461 0.61693c0.06133-3e-3 0.12436 0.0122 0.18066 0.0466 0.83041 0.50784 1.3739 1.4205 1.3739 2.4489 0 0.94039-0.46187 1.8221-1.2355 2.3587-0.14458 0.1003-0.34326 0.0643-0.44362-0.0804-0.10033-0.14465-0.06427-0.34302 0.08039-0.44335 0.60194-0.4175 0.96137-1.1035 0.96137-1.835 0-0.80702-0.42876-1.5136-1.0693-1.9053-0.15018-0.0919-0.19758-0.28799-0.10573-0.43817 0.05741-0.0939 0.15556-0.14743 0.25778-0.15206zm-1.8462 0.58451c0.11226 0.013 0.21336 0.10401 0.21336 0.23762v3.3465c0 0.21354-0.25851 0.3189-0.4082 0.16922l-0.88616-0.88616h-1.0167c-0.13203 0-0.23898-0.10695-0.23898-0.23898v-1.4344c0-0.13204 0.10695-0.23898 0.23898-0.23898h1.0167l0.88616-0.88616c0.05607-0.0561 0.12748-0.0765 0.19484-0.0687zm1.348 0.23189c0.06133-3e-3 0.12408 0.0122 0.18039 0.0466 0.5559 0.33991 0.91613 0.94973 0.91613 1.6325 1e-6 0.62693-0.30804 1.2149-0.82376 1.5726a0.31738 0.31738 0 0 1-0.18121 0.0567c-0.10098 0-0.20022-0.0478-0.26214-0.13707-0.10033-0.14465-0.06453-0.34329 0.08011-0.44362 0.34404-0.23864 0.54935-0.63056 0.54935-1.0486 0-0.44777-0.22832-0.85493-0.61094-1.0889-0.15022-0.0918-0.19757-0.28798-0.10573-0.43817 0.0574-0.0939 0.15556-0.14742 0.25778-0.15206zm-0.49812 0.8164c0.06133-3e-3 0.12407 0.0119 0.18039 0.0463 0.28674 0.17525 0.45807 0.48054 0.45807 0.8164 0 0.31355-0.15417 0.60739-0.41202 0.78615-0.14465 0.1003-0.34305 0.0643-0.44335-0.0804-0.1003-0.14468-0.06429-0.34333 0.08039-0.44363a0.31931 0.31931 0 0 0 0.13734-0.26214c0-0.112-0.05712-0.21371-0.15287-0.27223-0.15019-0.0918-0.19754-0.28797-0.10573-0.43817 0.05738-0.0939 0.15556-0.14767 0.25778-0.15233zm-12.572 0.43654a3.1177 3.1177 0 0 1 3.1176 3.1176 3.1177 3.1177 0 0 1-3.1176 3.1176 3.1177 3.1177 0 0 1-3.1176-3.1176 3.1177 3.1177 0 0 1 3.1176-3.1176z" style="fill:#ffffff;stroke-width:.11979;stroke:#ffffff"/>
  <path d="m50.044 128.14-0.2153 0.21529c-0.09116 0.0912-0.23857 0.0912-0.32876 0l-1.8853-1.8843c-0.09116-0.0912-0.09116-0.23858 0-0.32877l1.8853-1.8853c0.09116-0.0912 0.23857-0.0912 0.32876 0l0.2153 0.2153c0.09213 0.0921 0.09019 0.24245-0.0039 0.33264l-1.1686 1.1134h2.7872c0.12898 0 0.23275 0.10377 0.23275 0.23275v0.31034c0 0.12898-0.10377 0.23275-0.23275 0.23275h-2.7872l1.1686 1.1133c0.09504 0.0902 0.09698 0.24052 0.0039 0.33265z" style="fill:#ffffff;stroke-width:.0096981;stroke:#fbf8f8"/>
  <circle cx="75.893" cy="126.36" r="7.082" style="fill:none;stroke-width:1.5635;stroke:#de1f1f"/>
 </g>
</svg>
